# xmcd
#
# Track frame offsets: 
#        150
#        12903
#        28258
#        42482
#        57195
#        72179
#        88317
#        102575
#        118926
#        133530
#        152334
#        166803
#        181992
#        196468
#        211903
#        229889
#        245886
#        260791
#        279017
#        294002
#
# Disc length: 4134 seconds
#
# Revision: 0
# Processed by: cddbd v1.5.2PL0 Copyright (c) Steve Scherf et al.
# Submitted via: ExactAudioCopy v1.1
#
DISCID=24102414
DTITLE=Various Artist - De Foute CD 2018 - CD 2
DYEAR=2018
DGENRE=Pop
TTITLE0=Crazy Frog - Axel F
TTITLE1=Dynamite - De Pizza Dans
TTITLE2=M-Kids - Indianendans
TTITLE3=Andy - Boem Boem Boem!
TTITLE4=Gigi D'Agostino - The Riddle
TTITLE5=Daddy DJ - Daddy DJ
TTITLE6=Guru Josh Project - Infinity 2008
TTITLE7=DJ Peter Project - The Party Plane
TTITLE8=DJ Bart - Get Up Aah!!
TTITLE9=Scooter - Fuck The Millennium
TTITLE10=Regi and BP - AAA Anthem
TTITLE11=Jebroer and DJ Paul Elstak - Kind Van De Duivel
TTITLE12=D-Devils - The 6th Gate
TTITLE13=The Moon - Blow Up The Speakers
TTITLE14=Freeze - 2 Know
TTITLE15=Dance Nation - Sunshine
TTITLE16=Pakito - Living On Video
TTITLE17=Sylver - Turn The Tide
TTITLE18=DJ Boozywoozy - Party Affair
TTITLE19=Jordan and Baker - Explode
EXTD=
EXTT0=
EXTT1=
EXTT2=
EXTT3=
EXTT4=
EXTT5=
EXTT6=
EXTT7=
EXTT8=
EXTT9=
EXTT10=
EXTT11=
EXTT12=
EXTT13=
EXTT14=
EXTT15=
EXTT16=
EXTT17=
EXTT18=
EXTT19=
PLAYORDER=
